<svg xmlns="http://www.w3.org/2000/svg"
  viewBox="0 0 300 302"
  width="100%" height="100%"
  preserveAspectRatio="xMidYMid meet">
  <g transform="translate(0,302) scale(0.1,-0.1)" fill="currentColor" stroke="none">
    <path d="M233 2855 c-37 -16 -63 -60 -63 -109 0 -38 29 -77 697 -911 l312
    -390 1 -267 0 -266 27 -32 c24 -30 30 -32 72 -27 33 4 52 12 68 32 23 26 23
    29 23 316 0 191 -4 297 -11 311 -6 11 -217 278 -469 594 l-459 574 1045 0
    1044 0 -98 -122 c-54 -68 -177 -222 -273 -343 -97 -121 -254 -319 -350 -440
    -96 -121 -185 -233 -196 -250 -19 -26 -22 -48 -26 -185 -4 -141 -3 -153 11
    -132 8 12 267 338 575 725 308 386 573 720 588 741 49 66 31 153 -36 182 -51
    21 -2434 20 -2482 -1z"/>
    <path d="M2518 1880 c-9 -6 -126 -144 -259 -308 -134 -163 -246 -299 -249
    -302 -3 -3 -46 -54 -95 -115 -49 -60 -175 -213 -280 -340 -105 -126 -204 -247
    -220 -268 -24 -29 -32 -34 -40 -24 -12 16 -85 96 -402 442 -234 255 -239 260
    -281 263 -36 3 -47 -1 -72 -27 -32 -31 -38 -67 -19 -103 12 -21 668 -751 720
    -800 33 -32 82 -37 116 -13 20 14 413 481 743 884 74 90 171 207 215 261 281
    341 265 319 265 360 0 53 -33 90 -85 96 -22 2 -48 0 -57 -6z"/>
  </g>
</svg>
